<svg width="285" height="86" viewBox="0 0 285 86" fill="none" xmlns="http://www.w3.org/2000/svg">
<path d="M27.7093 4.67515C29.9326 7.11531 31.0713 10.4773 31.0713 14.8696C31.0713 19.2076 29.9326 22.5696 27.7093 25.0098C25.5403 27.3415 22.5037 28.5344 18.6536 28.5344H14.2613C14.0987 28.5344 14.0444 28.5887 14.0444 28.7513V38.7831C14.0444 38.9458 13.9902 39 13.8275 39H3.47044C3.30777 39 3.25354 38.9458 3.25354 38.7831V1.25894C3.25354 1.09626 3.30777 1.04203 3.47044 1.04203H18.5452C22.3952 1.04203 25.4318 2.235 27.7093 4.67515ZM19.3043 16.8759C19.6839 16.171 19.9008 15.4661 19.9008 14.7611C19.9008 14.0562 19.6839 13.4055 19.3043 12.7006C18.8705 12.0498 18.274 11.7245 17.4607 11.7245H14.2613C14.0987 11.7245 14.0444 11.7787 14.0444 11.9414V17.6351C14.0444 17.7978 14.0987 17.852 14.2613 17.852H17.4607C18.274 17.852 18.8705 17.5266 19.3043 16.8759ZM62.2536 4.3498C64.8564 7.11531 66.1579 10.9111 66.1579 15.7372V24.3048C66.1579 29.1309 64.8564 32.9267 62.2536 35.6922C59.705 38.4577 56.0177 39.8134 51.3 39.8134C46.5824 39.8134 42.9493 38.4577 40.4007 35.6922C37.7978 32.9267 36.4964 29.1309 36.4964 24.3048V15.7372C36.4964 10.9111 37.7978 7.11531 40.4007 4.3498C42.9493 1.58429 46.5824 0.22865 51.3 0.22865C56.0177 0.22865 59.705 1.58429 62.2536 4.3498ZM55.3669 25.0098V15.0323C55.3669 12.321 54.0113 10.9653 51.3 10.9653C48.643 10.9653 47.2873 12.321 47.2873 15.0323V25.0098C47.2873 27.7211 48.643 29.0767 51.3 29.0767C54.0113 29.0767 55.3669 27.7211 55.3669 25.0098ZM97.1999 1.04203H106.906C107.069 1.04203 107.123 1.09626 107.123 1.25894V38.7831C107.123 38.9458 107.069 39 106.906 39H97.2541C97.1457 39 97.0915 38.9458 97.0915 38.7831V23.871C97.0915 23.6541 96.8203 23.5457 96.6577 23.7626C95.3563 26.745 91.5605 36.0176 90.4217 38.8915C90.4217 38.9458 90.3675 39 90.259 39H89.0661C88.9576 39 88.9034 38.9458 88.9034 38.8915L82.6132 23.7626C82.4505 23.5457 82.1794 23.5999 82.1794 23.871V38.7831C82.1794 38.9458 82.1252 39 81.9625 39H72.3646C72.2019 39 72.1477 38.9458 72.1477 38.7831V1.25894C72.1477 1.09626 72.2019 1.04203 72.3646 1.04203H82.071C82.1252 1.04203 82.2336 1.09626 82.2879 1.15049L89.4457 18.6112C89.4999 18.7738 89.771 18.7738 89.8252 18.6112L90.8555 16.1168L97.0372 1.15049C97.0372 1.09626 97.0915 1.04203 97.1999 1.04203ZM138.826 4.3498C141.429 7.11531 142.73 10.9111 142.73 15.7372V24.3048C142.73 29.1309 141.429 32.9267 138.826 35.6922C136.278 38.4577 132.59 39.8134 127.873 39.8134C123.155 39.8134 119.522 38.4577 116.973 35.6922C114.37 32.9267 113.069 29.1309 113.069 24.3048V15.7372C113.069 10.9111 114.37 7.11531 116.973 4.3498C119.522 1.58429 123.155 0.22865 127.873 0.22865C132.59 0.22865 136.278 1.58429 138.826 4.3498ZM131.94 25.0098V15.0323C131.94 12.321 130.584 10.9653 127.873 10.9653C125.216 10.9653 123.86 12.321 123.86 15.0323V25.0098C123.86 27.7211 125.216 29.0767 127.873 29.0767C130.584 29.0767 131.94 27.7211 131.94 25.0098ZM168.153 50.109C170.702 52.8745 172.003 56.7245 172.003 61.5506V68.4372C172.003 73.2633 170.702 77.1133 168.153 79.8788C165.604 82.6444 161.971 84 157.199 84H143.589C143.426 84 143.372 83.9458 143.372 83.7831V46.2589C143.372 46.0963 143.426 46.042 143.589 46.042H157.199C161.917 46.042 165.604 47.3977 168.153 50.109ZM161.212 68.1119V61.8759C161.212 60.0865 160.887 58.7851 160.182 57.9717C159.477 57.1583 158.284 56.7245 156.603 56.7245H154.38C154.217 56.7245 154.163 56.7787 154.163 56.9414V73.0464C154.163 73.2091 154.217 73.2633 154.38 73.2633H156.603C158.284 73.2633 159.477 72.8837 160.182 72.0704C160.887 71.257 161.212 69.9556 161.212 68.1119ZM203.166 49.3498C205.769 52.1153 207.07 55.9111 207.07 60.7372V69.3048C207.07 74.1309 205.769 77.9267 203.166 80.6922C200.618 83.4577 196.93 84.8134 192.213 84.8134C187.495 84.8134 183.862 83.4577 181.313 80.6922C178.71 77.9267 177.409 74.1309 177.409 69.3048V60.7372C177.409 55.9111 178.71 52.1153 181.313 49.3498C183.862 46.5843 187.495 45.2286 192.213 45.2286C196.93 45.2286 200.618 46.5843 203.166 49.3498ZM196.28 70.0098V60.0323C196.28 57.321 194.924 55.9653 192.213 55.9653C189.556 55.9653 188.2 57.321 188.2 60.0323V70.0098C188.2 72.7211 189.556 74.0767 192.213 74.0767C194.924 74.0767 196.28 72.7211 196.28 70.0098ZM236.486 70.4978L242.559 83.7289C242.613 83.8915 242.559 84 242.342 84H230.358C230.304 84 230.196 83.9458 230.141 83.8915L225.586 72.3957C225.532 72.2873 225.424 72.233 225.369 72.233H224.068C223.905 72.233 223.851 72.2873 223.851 72.4499V83.7831C223.851 83.9458 223.797 84 223.634 84H213.277C213.114 84 213.06 83.9458 213.06 83.7831V46.2589C213.06 46.0963 213.114 46.042 213.277 46.042H228.731C232.473 46.042 235.455 47.1808 237.624 49.5125C239.794 51.8442 240.878 55.1519 240.878 59.4358C240.878 64.3161 239.414 67.9492 236.54 70.2809C236.432 70.3351 236.432 70.4436 236.486 70.4978ZM229.111 61.3879C229.545 60.8456 229.762 60.1407 229.762 59.3273C229.762 58.5682 229.545 57.9175 229.165 57.4294C228.677 56.9414 228.135 56.7245 227.43 56.7245H224.068C223.905 56.7245 223.851 56.7787 223.851 56.9414V61.9844C223.851 62.1471 223.905 62.2013 224.068 62.2013H227.43C228.135 62.2013 228.677 61.9302 229.111 61.3879ZM271.637 49.3498C274.24 52.1153 275.541 55.9111 275.541 60.7372V69.3048C275.541 74.1309 274.24 77.9267 271.637 80.6922C269.088 83.4577 265.401 84.8134 260.683 84.8134C255.965 84.8134 252.332 83.4577 249.784 80.6922C247.181 77.9267 245.879 74.1309 245.879 69.3048V60.7372C245.879 55.9111 247.181 52.1153 249.784 49.3498C252.332 46.5843 255.965 45.2286 260.683 45.2286C265.401 45.2286 269.088 46.5843 271.637 49.3498ZM264.75 70.0098V60.0323C264.75 57.321 263.394 55.9653 260.683 55.9653C258.026 55.9653 256.67 57.321 256.67 60.0323V70.0098C256.67 72.7211 258.026 74.0767 260.683 74.0767C263.394 74.0767 264.75 72.7211 264.75 70.0098Z" fill="white"/>
<line x1="159" y1="18" x2="266" y2="18" stroke="#7F75A4" stroke-width="4" stroke-linecap="round"/>
<line x1="2" y1="64" x2="125" y2="64" stroke="#7F75A4" stroke-width="4" stroke-linecap="round"/>
</svg>
